<svg xmlns="http://www.w3.org/2000/svg" width="1600" height="900" viewBox="0 0 1600 900">
  <style>
  .ink{stroke:#201a25;stroke-width:4;stroke-linecap:round;stroke-linejoin:round}
  .soft{filter:url(#soft)}
  .label{font-family:Arial,Helvetica,sans-serif;font-weight:800;letter-spacing:.5px}
</style>
  <defs>
    <filter id="soft"><feGaussianBlur stdDeviation="7"/></filter>
    <linearGradient id="wall" x1="0" y1="0" x2="0" y2="1"><stop stop-color="#3f4d6d"/><stop offset="1" stop-color="#172033"/></linearGradient>
    <linearGradient id="floor" x1="0" y1="0" x2="0" y2="1"><stop stop-color="#5b4435"/><stop offset="1" stop-color="#2c211d"/></linearGradient>
    <radialGradient id="lamp" cx=".5" cy=".5" r=".55"><stop stop-color="#fff7c4"/><stop offset=".48" stop-color="#ffd772"/><stop offset="1" stop-color="#f4a73c" stop-opacity="0"/></radialGradient>
    <linearGradient id="shadow" x1="0" y1="0" x2="1" y2="1"><stop stop-color="#04070d"/><stop offset="1" stop-color="#1f102b"/></linearGradient>
    <linearGradient id="sceneWall" x1="0" y1="0" x2="0" y2="1"><stop stop-color="#4d4a67"/><stop offset="1" stop-color="#211d33"/></linearGradient><linearGradient id="sceneFloor" x1="0" y1="0" x2="0" y2="1"><stop stop-color="#5f453f"/><stop offset="1" stop-color="#261d1c"/></linearGradient>
  </defs>
  <rect width="1600" height="900" fill="url(#sceneWall)"/>
  <rect y="620" width="1600" height="280" fill="url(#sceneFloor)"/>
  <path d="M0 620 C260 590 510 650 780 612 C1070 575 1310 650 1600 606 L1600 900 L0 900Z" fill="#110f17" opacity=".18"/>
  <circle cx="1280" cy="180" r="230" fill="url(#lamp)" opacity=".62"/>
  <g>
    <rect x="100" y="125" width="290" height="220" rx="8" fill="#122542" class="ink"/>
    <path d="M116 321 C201.5 275, 308.79999999999995 305, 374 253" stroke="#8fa6ce" stroke-width="5" fill="none" opacity=".55"/>
    <line x1="245" y1="125" x2="245" y2="345" stroke="#e7d6ad" stroke-width="5"/>
    <line x1="100" y1="235" x2="390" y2="235" stroke="#e7d6ad" stroke-width="5"/>
    <path d="M72 115 C55 170, 64 325, 92 355" fill="#7a4677" opacity=".88" class="ink"/>
    <path d="M418 115 C435 170, 426 325, 398 355" fill="#7a4677" opacity=".88" class="ink"/>
  </g>
  <g>
    <rect x="1130" y="155" width="260" height="440" rx="10" fill="#4a2e3d" class="ink"/>
    <line x1="1260" y1="165" x2="1260" y2="585" stroke="#251716" stroke-width="4"/>
    <circle cx="1242" cy="366.2" r="5" fill="#e8c46d"/>
    <circle cx="1278" cy="366.2" r="5" fill="#e8c46d"/>
  </g>
  <g>
    <rect x="460" y="446.5" width="560" height="100.8" rx="18" fill="#5f3a29" class="ink"/>
    <rect x="488" y="385.6" width="504" height="75.6" rx="14" fill="#f7ead7" class="ink"/>
    <rect x="442" y="478" width="596" height="130.2" rx="24" fill="#6169a8" class="ink"/>
    <path d="M500 524 C661.6 552, 807.2 502, 985 535" fill="none" stroke="#fff8d3" stroke-opacity=".34" stroke-width="5"/>
    <rect x="452" y="593.5" width="22" height="72" rx="8" fill="#5f3a29" class="ink"/>
    <rect x="1006" y="593.5" width="22" height="72" rx="8" fill="#5f3a29" class="ink"/>
  </g>
  <g transform="translate(744 230) scale(1.12)">
    <rect x="-8" y="-34" width="16" height="68" rx="4" fill="#f6d86f" class="ink"/>
    <rect x="-30" y="-8" width="60" height="16" rx="4" fill="#f6d86f" class="ink"/>
  </g>
  <rect x="1032" y="472" width="82" height="120" rx="9" fill="#5c402c" class="ink"/>
  <circle cx="1074" cy="440" r="72" fill="url(#lamp)" opacity=".86"/>
  <path d="M1051 472 L1097 472 L1088 520 L1060 520Z" fill="#ffe3a0" class="ink"/>
  <g opacity=".8"><rect x="132" y="250" width="18" height="55" fill="#ffd96e" opacity=".65"/><rect x="182" y="232" width="18" height="73" fill="#ffd96e" opacity=".6"/><rect x="255" y="265" width="18" height="40" fill="#ffd96e" opacity=".55"/><rect x="1180" y="635" width="125" height="18" fill="#684530" class="ink"/><circle cx="1212" cy="596" r="20" fill="#fff4a8"/><rect x="1195" y="616" width="34" height="42" rx="5" fill="#77a1d2" class="ink"/></g>
  <text x="52" y="77" class="label" font-size="36" fill="#fff8d3">Mexico City Bedroom</text>
  <text x="54" y="116" class="label" font-size="22" fill="#e7d6ad">city lights, family altar, ropero shadow</text>
  <rect x="0" y="0" width="1600" height="900" fill="none" stroke="#f6d86f" stroke-opacity=".08" stroke-width="18"/>
</svg>